<?xml version="1.0" encoding="utf-8"?>
<!-- Generator: Adobe Illustrator 27.8.1, SVG Export Plug-In . SVG Version: 6.00 Build 0)  -->
<svg version="1.1"
	 id="svg5" xmlns:sodipodi="http://sodipodi.sourceforge.net/DTD/sodipodi-0.dtd" xmlns:inkscape="http://www.inkscape.org/namespaces/inkscape" xmlns:svg="http://www.w3.org/2000/svg"
	 xmlns="http://www.w3.org/2000/svg" xmlns:xlink="http://www.w3.org/1999/xlink" x="0px" y="0px" width="2000px" height="1200px"
	 viewBox="0 0 2000 1200" style="enable-background:new 0 0 2000 1200;" xml:space="preserve">
<style type="text/css">
	.st0{fill:#1F1E1D;}
	.st1{fill:#FFFFFF;}
	.st2{fill:#FF0000;}
</style>
<rect y="0" class="st0" width="2000" height="1200"/>
<sodipodi:namedview  bordercolor="#666666" borderopacity="1.0" fit-margin-bottom="0" fit-margin-left="0" fit-margin-right="0" fit-margin-top="0" id="namedview7" inkscape:current-layer="layer1" inkscape:cx="1349.1823" inkscape:cy="984.90309" inkscape:document-units="mm" inkscape:pagecheckerboard="0" inkscape:pageopacity="0.0" inkscape:pageshadow="2" inkscape:window-height="826" inkscape:window-maximized="1" inkscape:window-width="1600" inkscape:window-x="0" inkscape:window-y="0" inkscape:zoom="0.18529742" pagecolor="#ffffff" showgrid="false">
	</sodipodi:namedview>
<g>
	<path class="st1" d="M1563.3,33l3.4-3.4h31.3l6.9,6.9v17.2l-3.5,3.5h-3.4V39.9l-3.4-3.5h-6.8v17.2l-3.5,3.5h-3.4V36.4h-10.7V57
		h-3.4l-3.4-3.5L1563.3,33L1563.3,33z"/>
	<path class="st1" d="M1608.4,36.4l6.8-6.9h20.6l6.9,6.9v13.8l-6.9,6.8h-20.6l-6.8-6.8V36.4z M1632.4,36.4h-13.7l-3.5,3.5v6.8
		l3.5,3.5h13.7l3.4-3.5v-6.8L1632.4,36.4z"/>
	<path class="st1" d="M1646.2,33l3.4-3.4h31.3l6.9,6.9v17.2l-3.5,3.5h-3.4V39.9l-3.4-3.5h-6.8v17.2l-3.5,3.5h-3.4V36.4H1653V57h-3.4
		l-3.4-3.5V33z"/>
	<path class="st1" d="M1698.1,29.5h24.1l3.5,3.4v3.5h-27.5v3.5h20.7v6.8h-20.7v3.5h27.5v3.4l-3.5,3.5h-24.1l-6.8-6.8V36.4
		L1698.1,29.5z"/>
	<path class="st1" d="M1729.1,33l3.4-3.4h24.1l6.9,6.9v17.2L1760,57h-3.4V39.9l-3.4-3.5H1736V57h-3.4l-3.4-3.5L1729.1,33L1729.1,33z
		"/>
	<path class="st1" d="M1797.8,36.4h-10.3V57h-3.4l-3.4-3.5V36.4h-13.8V33l3.5-3.4h30.9V33L1797.8,36.4z"/>
</g>
<rect y="0" class="st2" width="14.2" height="1200"/>
</svg>
