<?xml version="1.0" encoding="UTF-8"?>
<svg id="uuid-62f7da6c-35b2-41de-a903-c7f634ea6b65" data-name="레이어 1" xmlns="http://www.w3.org/2000/svg" viewBox="0 0 24 24">
  <defs>
    <style>
      .uuid-cee07db8-478a-4cc3-9529-7ed40a989099 {
        fill: #e2e2e2;
        isolation: isolate;
        opacity: .995;
        stroke-width: 0px;
      }
    </style>
  </defs>
  <path class="uuid-cee07db8-478a-4cc3-9529-7ed40a989099" d="m4.335,10.331l.665.219c.38.125.571.504.446.883-.125.38-.504.571-.884.447l-.665-.219c-.38-.125-.571-.504-.446-.884.125-.38.504-.571.884-.446Z"/>
  <path class="uuid-cee07db8-478a-4cc3-9529-7ed40a989099" d="m18.205,14.891l.665.219c.38.125.571.504.446.884-.125.38-.504.571-.883.446l-.665-.219c-.38-.125-.571-.504-.446-.883.03-.411.504-.571.884-.447Z"/>
  <path class="uuid-cee07db8-478a-4cc3-9529-7ed40a989099" d="m3.503,7.742l17.575,5.778c.38.125.571.504.446.884l-.343,1.044c-.125.381-.504.572-.884.447L2.722,10.116c-.38-.125-.571-.504-.446-.883l.344-1.045c.125-.38.504-.571.884-.446Z"/>
  <path class="uuid-cee07db8-478a-4cc3-9529-7ed40a989099" d="m21.544,14.434l.219-.666L2.763,7.522l-.219.666,18.999,6.247Z"/>
</svg>