<?xml version="1.0" encoding="UTF-8"?>
<svg id="uuid-4acaf9ce-34a9-4fdb-9462-90232ac61707" data-name="레이어 1" xmlns="http://www.w3.org/2000/svg" viewBox="0 0 24 24">
  <defs>
    <style>
      .uuid-397fb44b-f079-4976-9bc3-d63063268ad0 {
        stroke-linecap: round;
        stroke-width: 2px;
      }

      .uuid-397fb44b-f079-4976-9bc3-d63063268ad0, .uuid-7f04e98c-6697-4bdf-a57d-ab1d2c9b6974 {
        fill: none;
        stroke: #e2e2e2;
        stroke-linejoin: round;
      }

      .uuid-7f04e98c-6697-4bdf-a57d-ab1d2c9b6974 {
        stroke-width: 1.867px;
      }
    </style>
  </defs>
  <path class="uuid-7f04e98c-6697-4bdf-a57d-ab1d2c9b6974" d="m16.59,2.389v4.852c0,.207.167.374.374.374h1.119c.207,0,.374.167.374.374v3.919c0,.207-.167.374-.374.374h-1.79c-.108,0-.21.047-.281.128l-3.043,3.478c-.071.081-.174.128-.281.128h-1.527c-.108,0-.21-.047-.281-.128l-3.043-3.478c-.071-.081-.174-.128-.281-.128h-1.79c-.207,0-.374-.167-.374-.374v-3.919c0-.207.167-.374.374-.374h1.119c.207,0,.374-.167.374-.374V2.389c0-.207.167-.374.374-.374h8.585c.207,0,.374.167.374.374Z"/>
  <path class="uuid-397fb44b-f079-4976-9bc3-d63063268ad0" d="m11.825,19.015s-.463,3,3.674,3h5.111"/>
</svg>