<?xml version="1.0" encoding="UTF-8"?>
<svg id="uuid-6fe33b68-3631-4eb1-86db-f703c86d3319" data-name="레이어 1" xmlns="http://www.w3.org/2000/svg" viewBox="0 0 24 24">
  <defs>
    <style>
      .uuid-a38555c5-49af-4c4c-9065-8e5f3cf918d9 {
        fill: none;
        stroke: #e2e2e2;
        stroke-linecap: round;
        stroke-linejoin: round;
        stroke-width: 2px;
      }
    </style>
  </defs>
  <path class="uuid-a38555c5-49af-4c4c-9065-8e5f3cf918d9" d="m3,6v10.8c0,1.12,0,1.68.218,2.108.192.376.497.683.874.875.427.218.987.218,2.105.218h11.606c1.118,0,1.677,0,2.104-.218.376-.192.683-.498.875-.874.218-.428.218-.988.218-2.108v-7.6c0-1.12,0-1.68-.218-2.108-.192-.376-.498-.682-.875-.874-.428-.218-.988-.218-2.108-.218h-5.8m-9,0h9m-9,0c0-1.105.895-2,2-2h3.675c.489,0,.734,0,.965.055.204.049.399.13.578.24.202.124.375.297.721.643l1.062,1.062"/>
</svg>