<?xml version="1.0" encoding="UTF-8"?>
<svg id="uuid-910bac4a-221a-46e7-b1ca-2f668e15f628" data-name="레이어 1" xmlns="http://www.w3.org/2000/svg" viewBox="0 0 24 24">
  <defs>
    <style>
      .uuid-f2416827-f51b-495f-a2b8-f5a820198833 {
        fill: #e2e2e2;
        stroke-width: 0px;
      }
    </style>
  </defs>
  <path class="uuid-f2416827-f51b-495f-a2b8-f5a820198833" d="m5.514,20.36l.483-2.72c.059-.334-.198-.64-.537-.64h-2.701c-.339,0-.595-.305-.537-.639l.159-.91c.046-.261.272-.451.537-.451h3.085c.264,0,.491-.19.537-.45l.867-4.91c.059-.334-.198-.64-.537-.64h-2.702c-.339,0-.595-.305-.537-.639l.159-.91c.046-.261.272-.451.537-.451h3.085c.264,0,.49-.19.537-.45l.55-3.1c.046-.26.272-.45.537-.45h.893c.339,0,.596.306.537.64l-.483,2.72c-.059.334.198.64.537.64h4.893c.264,0,.49-.19.537-.45l.55-3.1c.046-.26.272-.45.537-.45h.893c.339,0,.596.306.537.64l-.483,2.72c-.059.334.198.64.537.64h2.701c.339,0,.595.305.537.639l-.159.91c-.046.261-.272.451-.537.451h-3.085c-.264,0-.491.19-.537.45l-.867,4.91c-.059.334.198.64.537.64h2.702c.339,0,.595.305.537.639l-.159.91c-.046.261-.272.451-.537.451h-3.085c-.264,0-.49.19-.537.45l-.55,3.1c-.046.26-.272.45-.537.45h-.893c-.339,0-.596-.306-.537-.64l.483-2.72c.059-.334-.198-.64-.537-.64h-4.893c-.264,0-.49.19-.537.45l-.55,3.1c-.046.26-.272.45-.537.45h-.893c-.339,0-.596-.306-.537-.64Zm3.927-10.91l-.867,4.91c-.059.334.198.64.537.64h4.893c.264,0,.491-.19.537-.45l.867-4.91c.059-.334-.198-.64-.537-.64h-4.893c-.264,0-.491.19-.537.45Z"/>
</svg>