<?xml version="1.0" encoding="utf-8"?>
<!-- Generator: Adobe Illustrator 27.9.1, SVG Export Plug-In . SVG Version: 6.00 Build 0)  -->
<svg version="1.1" id="uuid-772f7ede-087d-44b4-b72e-f4167f741856"
	 xmlns="http://www.w3.org/2000/svg" xmlns:xlink="http://www.w3.org/1999/xlink" x="0px" y="0px" width="24px" height="24px"
	 viewBox="0 0 24 24" style="enable-background:new 0 0 24 24;" xml:space="preserve">
<style type="text/css">
	.st0{fill:#E2E2E2;}
</style>
<path class="st0" d="M13.3,3c-1.4,0.6-6.2,3.1-4.6,9.8l0.1,0.4l-0.4-0.1c0,0-1.8-0.7-2.1-2.8c-0.7,1.3-1.8,4.2-0.8,6.5
	c0.8,1.8,2.6,3,5.6,3.5c0.3,0,6.5,1.1,7.9-4.3c0.6-2.6-0.8-4-2.4-5.7C14.8,8.6,12.9,6.6,13.3,3z M15.7,15.5c-0.3,1-0.8,1.7-1.5,2
	c-0.4,0.2-0.9,0.3-1.3,0.3c-1.4,0-2.8-0.7-2.9-0.7l-0.6-0.3l0.7-0.1c0.6-0.1,1.1-0.4,1.3-0.9c0.9-1.8-0.6-5.3-0.6-5.4l-0.2-0.5
	l0.5,0.2C11.2,9.9,16.7,11.6,15.7,15.5z"/>
</svg>
