<?xml version="1.0" encoding="UTF-8"?>
<svg id="uuid-354bb8e0-6bdb-4a73-9ca6-e2949d366e40" data-name="레이어 1" xmlns="http://www.w3.org/2000/svg" viewBox="0 0 24 24">
  <defs>
    <style>
      .uuid-ff59225c-1d98-4b7e-a3a9-c68c27bd99fe {
        fill: #e2e2e2;
        stroke: #e2e2e2;
        stroke-miterlimit: 10;
        stroke-width: .465px;
      }
    </style>
  </defs>
  <path class="uuid-ff59225c-1d98-4b7e-a3a9-c68c27bd99fe" d="m18.443,7.314v-3.189c0-.791-.641-1.432-1.432-1.432H6.989c-.791,0-1.432.641-1.432,1.432v3.222c0,.45.213.874.573,1.145l4.678,3.508-4.678,3.508c-.36.271-.572.695-.573,1.145v3.222c0,.791.641,1.432,1.432,1.432h10.023c.791,0,1.432-.641,1.432-1.432v-3.189c-.001-.449-.211-.871-.568-1.143l-4.687-3.543,4.687-3.544c.357-.271.567-.693.568-1.142Zm-1.432,12.561H6.989v-3.222l5.011-3.758,5.011,3.79v3.19Zm0-12.561l-5.011,3.791-5.011-3.758v-3.222h10.023v3.189Z"/>
</svg>