<?xml version="1.0" encoding="UTF-8"?>
<svg id="uuid-d74139b1-1621-409c-982b-51da55dc4591" data-name="레이어 1" xmlns="http://www.w3.org/2000/svg" viewBox="0 0 64 64">
  <defs>
    <style>
      .uuid-03d7f9e8-1991-41e4-b148-56620af252fb {
        fill: #e2e2e2;
        stroke-width: 0px;
      }
    </style>
  </defs>
  <path class="uuid-03d7f9e8-1991-41e4-b148-56620af252fb" d="m0,27.4l.9-.9h8.4l1.8,1.8v4.6l-.9.9h-.9v-4.6l-.9-.9h-1.8v4.6l-.9.9h-1v-5.6H1.8v5.6h-.9l-.9-.9v-5.5Z"/>
  <path class="uuid-03d7f9e8-1991-41e4-b148-56620af252fb" d="m12.1,28.3l1.8-1.8h5.6l1.8,1.8v3.7l-1.8,1.8h-5.5l-1.8-1.8-.1-3.7h0Zm6.5,0h-3.7l-.9,1v1.8l.9.9h3.7l.9-.9v-1.8l-.9-1Z"/>
  <path class="uuid-03d7f9e8-1991-41e4-b148-56620af252fb" d="m22.3,27.4l.9-.9h8.4l1.8,1.8v4.6l-.9.9h-.9v-4.6l-.9-.9h-1.8v4.6l-.9.9h-1v-5.6h-2.9v5.6h-.9l-.9-.9s0-5.5,0-5.5Z"/>
  <path class="uuid-03d7f9e8-1991-41e4-b148-56620af252fb" d="m36.2,26.5h6.5l.9.9v.9h-7.4v.9h5.6v1.8h-5.6v.9h7.4v.9l-.9.9h-6.5l-1.8-1.8v-3.7l1.8-1.7Z"/>
  <path class="uuid-03d7f9e8-1991-41e4-b148-56620af252fb" d="m44.6,27.4l.9-.9h6.5l1.8,1.8v4.6l-.9.9h-.9v-4.6l-.9-.9h-4.6v5.6h-.9l-.9-.9-.1-5.6h0Z"/>
  <path class="uuid-03d7f9e8-1991-41e4-b148-56620af252fb" d="m63.1,28.3h-2.8v5.5h-.9l-.9-.9v-4.6h-3.7v-.9l.9-.9h8.3v.9l-.9.9Z"/>
</svg>