<?xml version="1.0" encoding="UTF-8"?>
<svg id="uuid-badc39c0-7797-47d0-aedf-3eb480bad3a8" data-name="레이어 1" xmlns="http://www.w3.org/2000/svg" viewBox="0 0 24 24">
  <defs>
    <style>
      .uuid-71269897-f5ae-493d-aeec-236951a9d9ca {
        fill: none;
        stroke: #e2e2e2;
        stroke-linecap: round;
        stroke-linejoin: round;
        stroke-width: 2px;
      }
    </style>
  </defs>
  <path class="uuid-71269897-f5ae-493d-aeec-236951a9d9ca" d="m12,18v-6m0,0l-3,2m3-2l3,2m-2-10.999c-.095,0-.203,0-.325,0h-4.474c-1.12,0-1.681,0-2.108.218-.376.192-.682.498-.874.874-.218.428-.218.988-.218,2.108v11.6c0,1.12,0,1.68.218,2.108.192.376.497.683.874.874.427.218.987.218,2.105.218h7.606c1.118,0,1.677,0,2.104-.218.376-.192.683-.498.875-.874.218-.427.218-.986.218-2.104v-8.478c0-.123,0-.23,0-.326m-5.999-5.999c.286.003.466.013.639.054.204.049.399.13.578.24.202.124.375.297.721.643l3.125,3.125c.346.346.518.518.642.72.11.179.191.374.24.578.041.173.052.353.055.639m-5.999-5.999v2.799c0,1.12,0,1.68.218,2.108.192.376.497.683.874.875.427.218.987.218,2.105.218h2.802m0,0h.001"/>
</svg>