<?xml version="1.0" encoding="UTF-8"?>
<svg id="uuid-a9215bde-4066-41c7-9b95-21377ebad8c5" data-name="레이어 1" xmlns="http://www.w3.org/2000/svg" viewBox="0 0 24 24">
  <defs>
    <style>
      .uuid-f3b24d10-4987-4cb0-b291-67e9ee111275 {
        fill: none;
        stroke: #e2e2e2;
        stroke-linecap: round;
        stroke-linejoin: round;
        stroke-width: 2px;
      }
    </style>
  </defs>
  <path class="uuid-f3b24d10-4987-4cb0-b291-67e9ee111275" d="m15,5.5v13c0,.465,0,.697.038.89.158.794.778,1.414,1.571,1.572.193.038.426.038.89.038s.698,0,.891-.038c.793-.158,1.413-.778,1.571-1.572.038-.191.038-.421.038-.878V5.488c0-.457,0-.687-.038-.879-.158-.793-.778-1.413-1.572-1.571-.193-.038-.425-.038-.89-.038s-.697,0-.891.038c-.793.158-1.413.778-1.571,1.571-.038.194-.038.426-.038.891Z"/>
  <path class="uuid-f3b24d10-4987-4cb0-b291-67e9ee111275" d="m4,5.5v13c0,.465,0,.697.038.89.158.794.778,1.414,1.571,1.572.193.038.426.038.89.038s.698,0,.891-.038c.793-.158,1.413-.778,1.571-1.572.038-.191.038-.421.038-.878V5.488c0-.457,0-.687-.038-.879-.158-.793-.778-1.413-1.572-1.571-.193-.038-.426-.038-.89-.038s-.697,0-.891.038c-.793.158-1.413.778-1.571,1.571-.038.194-.038.426-.038.891Z"/>
</svg>