<?xml version="1.0" encoding="UTF-8"?>
<svg id="uuid-bdcc526f-2b08-4f6c-b114-7cff3be4f3ea" data-name="레이어 1" xmlns="http://www.w3.org/2000/svg" viewBox="0 0 24 24">
  <defs>
    <style>
      .uuid-02890ced-fdfa-4046-9514-8a50a122749c {
        fill: none;
        stroke: #e2e2e2;
        stroke-linecap: round;
        stroke-linejoin: round;
        stroke-width: 2px;
      }
    </style>
  </defs>
  <g id="uuid-af51f05b-1c76-4e52-b253-233cb98cd88e" data-name="Interface / Settings">
    <g id="uuid-6d2c7480-b84c-4e37-87e0-2eafe1350130" data-name="Vector">
      <path class="uuid-02890ced-fdfa-4046-9514-8a50a122749c" d="m20.35,8.923l-.366-.204c-.057-.032-.085-.048-.112-.064-.273-.164-.503-.39-.671-.66-.017-.027-.033-.056-.065-.112-.032-.056-.049-.085-.064-.113-.151-.281-.232-.595-.237-.914,0-.032,0-.065,0-.13l.007-.425c.011-.681.017-1.022-.078-1.328-.085-.272-.227-.523-.417-.735-.215-.24-.512-.412-1.106-.754l-.494-.285c-.593-.342-.889-.512-1.204-.578-.278-.058-.566-.055-.843.007-.313.07-.606.246-1.191.596l-.003.002-.354.212c-.056.033-.084.05-.112.066-.278.155-.589.24-.907.25-.032.001-.065.001-.13.001-.065,0-.099,0-.131-.001-.319-.01-.63-.096-.909-.252-.028-.016-.056-.033-.112-.066l-.356-.214c-.589-.354-.884-.531-1.199-.602-.279-.062-.567-.064-.846-.006-.316.066-.612.238-1.205.582h-.003s-.488.284-.488.284l-.005.003c-.588.341-.882.512-1.095.752-.189.212-.33.463-.414.734-.095.307-.09.649-.079,1.333l.007.425c.001.064.003.096.002.128-.005.32-.087.634-.238.916-.015.028-.031.056-.063.111-.032.056-.048.083-.064.11-.169.272-.4.499-.675.663-.027.016-.056.032-.112.063l-.362.2c-.602.333-.902.5-1.121.738-.194.21-.34.459-.429.731-.101.307-.101.651-.099,1.338v.562c.003.683.005,1.024.106,1.329.089.269.235.517.427.726.218.236.515.402,1.112.734l.358.199c.061.034.092.051.121.068.272.164.502.391.669.661.018.029.035.059.07.12.034.06.052.09.068.12.147.278.225.586.231.9,0,.034,0,.068-.001.137l-.007.408c-.012.686-.017,1.029.079,1.337.085.272.227.523.417.735.215.24.512.412,1.106.754l.494.284c.593.342.889.512,1.204.577.278.058.566.055.843-.007.314-.07.607-.246,1.194-.598l.354-.212c.056-.034.084-.05.112-.066.278-.155.589-.241.907-.251.032,0,.065,0,.13,0s.098,0,.13,0c.319.01.631.097.91.252.024.014.049.028.092.054l.376.226c.589.354.884.53,1.199.601.278.062.567.065.847.007.315-.066.613-.238,1.206-.583l.495-.287c.588-.341.883-.513,1.096-.752.189-.212.33-.462.414-.734.095-.304.089-.644.078-1.318l-.007-.44c-.001-.064-.001-.096,0-.128.005-.32.086-.634.237-.916.015-.028.031-.056.063-.111.032-.056.049-.083.066-.11.169-.272.4-.499.675-.663.027-.016.055-.031.109-.062h.002s.361-.201.361-.201c.602-.333.903-.5,1.122-.738.194-.21.34-.459.429-.73.1-.305.099-.647.098-1.326v-.574c-.003-.683-.004-1.024-.105-1.329-.09-.269-.236-.517-.428-.726-.217-.236-.515-.402-1.111-.733h-.002Z"/>
      <path class="uuid-02890ced-fdfa-4046-9514-8a50a122749c" d="m8,12c0,2.209,1.791,4,4,4s4-1.791,4-4-1.791-4-4-4-4,1.791-4,4Z"/>
    </g>
  </g>
</svg>