<?xml version="1.0" encoding="UTF-8"?>
<svg id="uuid-8f9f47c9-1c99-4a09-8249-73d45c357868" data-name="레이어 1" xmlns="http://www.w3.org/2000/svg" viewBox="0 0 24 24">
  <defs>
    <style>
      .uuid-f13f4453-3253-4e10-b444-9a7c689bb1dd {
        fill: #e2e2e2;
        stroke: #e2e2e2;
        stroke-miterlimit: 10;
        stroke-width: .362px;
      }
    </style>
  </defs>
  <path class="uuid-f13f4453-3253-4e10-b444-9a7c689bb1dd" d="m19.43,7.928c-1.969-1.973-4.643-3.078-7.43-3.07h-.038c-5.783.02-10.489,4.793-10.489,10.632v2.149c0,.831.673,1.504,1.504,1.504h18.045c.831,0,1.504-.673,1.504-1.504v-2.256c.008-2.8-1.107-5.485-3.096-7.456Zm1.592,9.711h-9.802l5.147-7.077c.244-.336.17-.806-.165-1.051-.336-.244-.806-.17-1.051.165l-5.79,7.962H2.977v-2.149c0-.289.014-.575.04-.858h2.215c.415,0,.752-.337.752-.752s-.337-.752-.752-.752h-1.948c.97-3.652,4.135-6.414,7.963-6.735v2.224c0,.415.337.752.752.752s.752-.337.752-.752v-2.225c3.823.322,7.026,3.022,7.989,6.736h-1.974c-.415,0-.752.337-.752.752s.337.752.752.752h2.225c.02.249.031.499.031.752v2.256Z"/>
</svg>