<?xml version="1.0" encoding="UTF-8"?>
<svg id="uuid-db9e1ce2-4e04-42db-a903-c91e582f0954" data-name="레이어 1" xmlns="http://www.w3.org/2000/svg" viewBox="0 0 64 64">
  <defs>
    <style>
      .uuid-f52ccd53-f470-4aaa-ab3a-e3a587c0c2f3 {
        fill: #e2e2e2;
        stroke-width: 0px;
      }
    </style>
  </defs>
  <path class="uuid-f52ccd53-f470-4aaa-ab3a-e3a587c0c2f3" d="m48,12H16c-2.2,0-4,1.8-4,4v32c0,2.2,1.8,4,4,4h32c2.2,0,4-1.8,4-4V16c0-2.2-1.8-4-4-4ZM14.1,50.7c-.6,0-1.1-.5-1.1-1.1s.5-1.1,1.1-1.1,1.1.5,1.1,1.1-.5,1.1-1.1,1.1Zm0-11.6c-.6,0-1.1-.5-1.1-1.1s.5-1.1,1.1-1.1,1.1.5,1.1,1.1-.5,1.1-1.1,1.1Zm0-12c-.6,0-1.1-.5-1.1-1.1s.5-1.1,1.1-1.1,1.1.5,1.1,1.1c-.1.7-.5,1.1-1.1,1.1Zm0-11.3c-.6,0-1.1-.5-1.1-1.1s.5-1.1,1.1-1.1,1.1.5,1.1,1.1-.5,1.1-1.1,1.1Zm9.9,32.2h-8v-8h8v8Zm0-12h-8v-8h8v8Zm0-12h-8v-8h8v8Zm2,26.7c-.6,0-1.1-.5-1.1-1.1s.5-1.1,1.1-1.1,1.1.5,1.1,1.1-.5,1.1-1.1,1.1Zm0-11.6c-.6,0-1.1-.5-1.1-1.1s.5-1,1.1-1,1.1.5,1.1,1.1-.5,1-1.1,1Zm0-12c-.6,0-1.1-.5-1.1-1.1s.5-1.1,1.1-1.1,1.1.5,1.1,1.1c0,.7-.5,1.1-1.1,1.1Zm0-11.3c-.6,0-1.1-.5-1.1-1.1s.5-1.1,1.1-1.1,1.1.5,1.1,1.1-.5,1.1-1.1,1.1Zm10,32.2h-8v-8h8v8Zm0-12h-8v-8h8v8Zm0-12h-8v-8h8v8Zm1.9,26.7c-.6,0-1.1-.5-1.1-1.1s.5-1.1,1.1-1.1,1.1.5,1.1,1.1-.5,1.1-1.1,1.1Zm0-11.6c-.6,0-1.1-.5-1.1-1.1s.5-1.1,1.1-1.1,1.1.6,1.1,1.1-.5,1.1-1.1,1.1Zm0-12c-.6,0-1.1-.5-1.1-1.1s.5-1.1,1.1-1.1,1.1.5,1.1,1.1c0,.7-.5,1.1-1.1,1.1Zm0-11.3c-.6,0-1.1-.5-1.1-1.1s.5-1.1,1.1-1.1,1.1.5,1.1,1.1-.5,1.1-1.1,1.1Zm10.1,32.2h-8v-8h8v8Zm0-12h-8v-8h8v8Zm0-12h-8v-8h8v8Zm1.9,26.7c-.6,0-1.1-.5-1.1-1.1s.5-1.1,1.1-1.1,1.1.5,1.1,1.1-.5,1.1-1.1,1.1Zm0-11.6c-.6,0-1.1-.5-1.1-1.1s.5-1.1,1.1-1.1,1.1.5,1.1,1.1-.5,1.1-1.1,1.1Zm0-12c-.6,0-1.1-.5-1.1-1.1s.5-1.1,1.1-1.1,1.1.5,1.1,1.1c-.1.7-.5,1.1-1.1,1.1Zm0-11.3c-.6,0-1.1-.5-1.1-1.1s.5-1.1,1.1-1.1,1.1.5,1.1,1.1-.5,1.1-1.1,1.1Z"/>
</svg>