<?xml version="1.0" encoding="UTF-8"?>
<svg id="uuid-4af53c90-cca4-43fb-8bc2-77e8082552fa" data-name="레이어 1" xmlns="http://www.w3.org/2000/svg" viewBox="0 0 24 24">
  <defs>
    <style>
      .uuid-01572b84-5a7d-403c-b66e-c970868d9768 {
        fill: none;
        stroke: #e2e2e2;
        stroke-linecap: round;
        stroke-linejoin: round;
        stroke-width: 2px;
      }
    </style>
  </defs>
  <path class="uuid-01572b84-5a7d-403c-b66e-c970868d9768" d="m8.941,7.5h-3.289c-1.12,0-1.68,0-2.108.218-.377.192-.682.497-.874.874-.218.428-.218.988-.218,2.108v5.6c0,1.12,0,1.68.218,2.107.192.377.497.683.874.875.427.218.987.218,2.105.218h11.606c1.118,0,1.677,0,2.104-.218.377-.192.683-.498.875-.875.218-.427.218-.986.218-2.104v-5.606c0-1.118,0-1.678-.218-2.105-.192-.377-.498-.682-.875-.874-.427-.218-.987-.218-2.107-.218h-3.289m-5.022,0h.062m-.062,0h.062m-.062,0c-.106,0-.166,0-.213-.006-.587-.066-.99-.625-.867-1.203.012-.054.034-.122.079-.257l.002-.006c.052-.154.077-.231.106-.299.29-.695.947-1.168,1.699-1.224.073-.005.154-.005.316-.005h2.778c.162,0,.243,0,.317.005.751.056,1.408.529,1.698,1.224.029.068.054.145.106.299.046.139.069.208.081.263.123.578-.279,1.137-.867,1.203-.047.005-.107.006-.213.006m-4.96,0h4.898m0,0h.062m-.062,0h.062m-2.511,9c-1.657,0-3-1.343-3-3s1.343-3,3-3,3,1.343,3,3-1.343,3-3,3Z"/>
</svg>