<?xml version="1.0" encoding="UTF-8"?>
<svg id="uuid-ded845c1-59a3-4aab-a1b4-89e2876094be" data-name="레이어 1" xmlns="http://www.w3.org/2000/svg" viewBox="0 0 24 24">
  <defs>
    <style>
      .uuid-bb2e55c4-2d6d-4f98-a3c9-601f592a4dd5 {
        fill: none;
        stroke: #e2e2e2;
        stroke-linecap: round;
        stroke-linejoin: round;
        stroke-width: 2px;
      }
    </style>
  </defs>
  <path class="uuid-bb2e55c4-2d6d-4f98-a3c9-601f592a4dd5" d="m17,15h-5m-5-5l3,2.5-3,2.5m-4,.8v-7.6c0-1.12,0-1.681.218-2.108.192-.376.497-.682.874-.874.428-.218.988-.218,2.108-.218h11.6c1.12,0,1.679,0,2.107.218.376.192.683.497.875.874.218.427.218.987.218,2.105v7.606c0,1.118,0,1.677-.218,2.104-.192.376-.498.683-.875.875-.427.218-.986.218-2.104.218H6.197c-1.118,0-1.678,0-2.105-.218-.376-.192-.682-.498-.874-.875-.218-.428-.218-.987-.218-2.107Z"/>
</svg>