<?xml version="1.0" encoding="UTF-8"?>
<svg id="uuid-d82064a8-1338-4995-a574-cbe8977a840d" data-name="레이어 1" xmlns="http://www.w3.org/2000/svg" viewBox="0 0 24 24">
  <defs>
    <style>
      .uuid-592bcb1d-8b92-4265-a940-9ae008fb1e95 {
        fill: none;
        stroke: #e2e2e2;
        stroke-linecap: round;
        stroke-linejoin: round;
        stroke-width: 2px;
      }
    </style>
  </defs>
  <path class="uuid-592bcb1d-8b92-4265-a940-9ae008fb1e95" d="m9,17h6m-6-3h6m-2-10.999c-.096,0-.203,0-.326,0h-4.475c-1.12,0-1.681,0-2.108.218-.376.192-.682.497-.874.874-.218.428-.218.988-.218,2.108v11.6c0,1.12,0,1.68.218,2.108.192.376.497.683.874.874.427.218.987.218,2.105.218h7.606c1.118,0,1.677,0,2.104-.218.376-.192.683-.498.875-.874.218-.427.218-.986.218-2.104v-8.478c0-.123,0-.23-.001-.326m-5.999-5.999c.285.003.465.013.638.055.204.049.4.13.579.239.202.124.375.297.721.643l3.125,3.125c.346.346.518.518.642.72.11.179.191.374.24.578.041.172.052.353.055.639m-5.999-5.999v2.799c0,1.12,0,1.68.218,2.108.192.376.497.683.874.874.427.218.987.218,2.105.218h2.802"/>
</svg>