<?xml version="1.0" encoding="UTF-8"?>
<svg id="uuid-032ca99a-b8c4-40dd-b65f-818a41c807ae" data-name="레이어 1" xmlns="http://www.w3.org/2000/svg" viewBox="0 0 24 24">
  <defs>
    <style>
      .uuid-23dc5219-f2e1-4609-84bc-78a1b8de7b23 {
        fill: none;
        stroke: #e2e2e2;
        stroke-linecap: round;
        stroke-linejoin: round;
        stroke-width: 2px;
      }
    </style>
  </defs>
  <g id="uuid-57fc43e7-27d6-4ceb-87fb-a2716a233080" data-name="Interface / Trash_Full">
    <path id="uuid-3b67a611-c067-4ede-8f2f-718da4be37db" data-name="Vector" class="uuid-23dc5219-f2e1-4609-84bc-78a1b8de7b23" d="m14,10v7m-4-7v7M6,6v11.8c0,1.12,0,1.68.218,2.108.192.376.497.683.874.875.427.218.987.218,2.105.218h5.606c1.118,0,1.677,0,2.104-.218.376-.192.683-.498.875-.875.218-.427.218-.987.218-2.104V6m-12,0h2m-2,0h-2m4,0h8m-8,0c0-.932,0-1.398.152-1.765.203-.49.592-.88,1.082-1.083.368-.152.834-.152,1.766-.152h2c.932,0,1.398,0,1.765.152.49.203.879.593,1.082,1.083.152.368.152.833.152,1.765m0,0h2m0,0h2"/>
  </g>
</svg>