<?xml version="1.0" encoding="UTF-8"?>
<svg id="uuid-784da79e-5f76-4cb1-a857-b0c96c400206" data-name="레이어 1" xmlns="http://www.w3.org/2000/svg" viewBox="0 0 24 24">
  <defs>
    <style>
      .uuid-ce8976d2-4bb1-4c21-a160-dee080605a43 {
        fill: #e2e2e2;
        stroke-width: 0px;
      }
    </style>
  </defs>
  <path class="uuid-ce8976d2-4bb1-4c21-a160-dee080605a43" d="m15,11c0,1.11-.9,2-2,2h-2v2h4v2h-6v-4c0-1.11.9-2,2-2h2v-2h-4v-2h4c.53,0,1.039.211,1.414.586s.586.884.586,1.414m4-6H5c-.53,0-1.039.211-1.414.586s-.586.884-.586,1.414v14c0,.53.211,1.039.586,1.414s.884.586,1.414.586h14c.53,0,1.039-.211,1.414-.586s.586-.884.586-1.414V5c0-.53-.211-1.039-.586-1.414s-.884-.586-1.414-.586Z"/>
</svg>