<?xml version="1.0" encoding="UTF-8"?>
<svg id="uuid-cc9623f5-5a8a-4b2b-b8f0-520964d1e07c" data-name="레이어 1" xmlns="http://www.w3.org/2000/svg" viewBox="0 0 24 24">
  <defs>
    <style>
      .uuid-9d7f39a2-09ce-4fe6-b3b8-099fdff7c1e7 {
        fill: #e2e2e2;
        stroke-width: 0px;
      }
    </style>
  </defs>
  <path class="uuid-9d7f39a2-09ce-4fe6-b3b8-099fdff7c1e7" d="m19,3c.53,0,1.039.211,1.414.586.375.375.586.884.586,1.414v14c0,.53-.211,1.039-.586,1.414-.375.375-.884.586-1.414.586H5c-.53,0-1.039-.211-1.414-.586-.375-.375-.586-.884-.586-1.414V5c0-.53.211-1.039.586-1.414.375-.375.884-.586,1.414-.586h14Zm-8,4c-.53,0-1.039.211-1.414.586-.375.375-.586.884-.586,1.414v6c0,.53.211,1.039.586,1.414.375.375.884.586,1.414.586h2c.53,0,1.039-.211,1.414-.586s.586-.884.586-1.414v-6c0-.53-.211-1.039-.586-1.414s-.884-.586-1.414-.586h-2Zm0,2h2v6h-2v-6Z"/>
</svg>