<?xml version="1.0" encoding="UTF-8"?>
<svg id="uuid-3111df7a-002e-4830-8ce0-fef81e455d04" data-name="레이어 1" xmlns="http://www.w3.org/2000/svg" viewBox="0 0 24 24">
  <defs>
    <style>
      .uuid-850e1f54-dfa8-42fe-b9b5-26b50cadd827 {
        fill: #e2e2e2;
        stroke-width: 0px;
      }
    </style>
  </defs>
  <path class="uuid-850e1f54-dfa8-42fe-b9b5-26b50cadd827" d="m15,17h-2v-4h-4v-6h2v4h2v-4h2m4-4H5c-.53,0-1.039.211-1.414.586-.375.375-.586.884-.586,1.414v14c0,.53.211,1.039.586,1.414.375.375.884.586,1.414.586h14c.53,0,1.039-.211,1.414-.586.375-.375.586-.884.586-1.414V5c0-.53-.211-1.039-.586-1.414-.375-.375-.884-.586-1.414-.586Z"/>
</svg>