<?xml version="1.0" encoding="UTF-8"?>
<svg id="uuid-813c655e-342d-471b-9d1d-cfa47da66897" data-name="레이어 1" xmlns="http://www.w3.org/2000/svg" viewBox="0 0 24 24">
  <defs>
    <style>
      .uuid-5fd35a88-4def-43a8-b1c0-6709e5210a4a {
        fill: #e2e2e2;
        stroke-width: 0px;
      }
    </style>
  </defs>
  <path class="uuid-5fd35a88-4def-43a8-b1c0-6709e5210a4a" d="m15,10.5c0,.398-.158.779-.439,1.061-.282.281-.663.439-1.061.439.84,0,1.5.67,1.5,1.5v1.5c0,1.11-.89,2-2,2h-4v-2h4v-2h-2v-2h2v-2h-4v-2h4c1.11,0,2,.89,2,2m4-6H5c-1.09,0-2,.9-2,2v14c0,.53.211,1.039.586,1.414s.884.586,1.414.586h14c1.11,0,2-.9,2-2V5c0-.53-.211-1.039-.586-1.414s-.884-.586-1.414-.586Z"/>
</svg>