<?xml version="1.0" encoding="UTF-8"?>
<svg id="uuid-0d437c04-b63e-4e67-a467-be56e7b3c67f" data-name="레이어 1" xmlns="http://www.w3.org/2000/svg" viewBox="0 0 24 24">
  <defs>
    <style>
      .uuid-0145bb80-9c45-420c-8eb3-9cbf9ba3f46f {
        stroke-linecap: round;
        stroke-width: 2px;
      }

      .uuid-0145bb80-9c45-420c-8eb3-9cbf9ba3f46f, .uuid-0e6ef011-7cb2-4bcd-98b2-99cca9d3092e {
        fill: none;
        stroke: #e2e2e2;
        stroke-linejoin: round;
      }

      .uuid-0e6ef011-7cb2-4bcd-98b2-99cca9d3092e {
        stroke-width: 1.867px;
      }
    </style>
  </defs>
  <path class="uuid-0e6ef011-7cb2-4bcd-98b2-99cca9d3092e" d="m16.556,2.341v4.852c0,.207.167.374.374.374h1.119c.207,0,.374.167.374.374v3.919c0,.207-.167.374-.374.374h-1.79c-.108,0-.21.047-.281.128l-3.043,3.478c-.071.081-.174.128-.281.128h-1.527c-.108,0-.21-.047-.281-.128l-3.043-3.478c-.071-.081-.174-.128-.281-.128h-1.79c-.207,0-.374-.167-.374-.374v-3.919c0-.207.167-.374.374-.374h1.119c.207,0,.374-.167.374-.374V2.341c0-.207.167-.374.374-.374h8.585c.207,0,.374.167.374.374Z"/>
  <path class="uuid-0145bb80-9c45-420c-8eb3-9cbf9ba3f46f" d="m11.792,18.967s-.463,3,3.674,3h5.111"/>
</svg>