<?xml version="1.0" encoding="UTF-8"?>
<svg id="uuid-2896a98b-3cd9-4c84-8595-38b9472a81d3" data-name="레이어 1" xmlns="http://www.w3.org/2000/svg" viewBox="0 0 24 24">
  <defs>
    <style>
      .uuid-2c0d2602-bb47-48ae-b44c-b613f7625f2e {
        fill: #e2e2e2;
        stroke-miterlimit: 10;
        stroke-width: .5px;
      }

      .uuid-2c0d2602-bb47-48ae-b44c-b613f7625f2e, .uuid-18bbc5bb-2be4-4fe8-b6ae-78918f92e05b {
        stroke: #e2e2e2;
      }

      .uuid-18bbc5bb-2be4-4fe8-b6ae-78918f92e05b {
        fill: none;
        stroke-linecap: round;
        stroke-linejoin: round;
        stroke-width: 1.6px;
      }
    </style>
  </defs>
  <path class="uuid-2c0d2602-bb47-48ae-b44c-b613f7625f2e" d="m21.825,13.734c-.817-3.053-3.955-4.866-7.009-4.049-.543.145-1.062.37-1.54.667l1.563-6.242c.08-.318-.053-.651-.329-.828-2.673-1.688-6.208-.889-7.895,1.784-1.688,2.673-.889,6.208,1.784,7.895.107.068.217.132.328.192l-6.188,1.768c-.315.09-.538.371-.553.698-.121,2.684,1.642,5.091,4.237,5.786.486.13.987.197,1.49.197,3.165-.008,5.723-2.581,5.715-5.745,0-.056-.001-.113-.003-.169l4.625,4.476c.236.228.591.28.882.129,2.384-1.237,3.587-3.965,2.893-6.559Zm-11.542-.668c0-.843.683-1.526,1.526-1.526s1.526.683,1.526,1.526-.683,1.526-1.526,1.526-1.526-.683-1.526-1.526Zm-3.053-4.96c0-2.318,1.878-4.198,4.196-4.199.619,0,1.23.136,1.79.4l-1.429,5.706c-1.114.008-2.134.623-2.663,1.603-1.184-.775-1.897-2.095-1.894-3.51Zm2.576,11.406c-2.007,1.16-4.574.473-5.734-1.534-.31-.536-.497-1.133-.548-1.75l5.658-1.616c.547.932,1.547,1.506,2.628,1.507h.087c-.078,1.412-.864,2.688-2.09,3.393Zm10.128-2.194c-.309.536-.732.996-1.24,1.349l-4.228-4.091c.551-.968.529-2.16-.056-3.107,2.069-1.045,4.594-.214,5.638,1.855.639,1.265.596,2.767-.114,3.994Z"/>
  <g id="uuid-2547305a-3f98-443b-b5e7-221d849d57b8" data-name="Edit / Add_Plus">
    <path id="uuid-62893f43-090a-4730-b70f-cdd82fe39491" data-name="Vector" class="uuid-18bbc5bb-2be4-4fe8-b6ae-78918f92e05b" d="m17,5.25h2.75m0,0h2.75m-2.75,0v2.75m0-2.75v-2.75"/>
  </g>
</svg>