<?xml version="1.0" encoding="UTF-8"?>
<svg id="uuid-c3608df1-7f40-4345-afb2-5a0236060f8a" data-name="레이어 1" xmlns="http://www.w3.org/2000/svg" viewBox="0 0 24 24">
  <defs>
    <style>
      .uuid-718fff29-4ad8-4f72-a514-0cf7fd5d090b {
        fill: #e2e2e2;
        stroke: #e2e2e2;
        stroke-miterlimit: 10;
        stroke-width: .5px;
      }
    </style>
  </defs>
  <path class="uuid-718fff29-4ad8-4f72-a514-0cf7fd5d090b" d="m21.825,13.734c-.817-3.053-3.955-4.866-7.009-4.049-.543.145-1.062.37-1.54.667l1.563-6.242c.08-.318-.053-.651-.329-.828-2.673-1.688-6.208-.889-7.895,1.784-1.688,2.673-.889,6.208,1.784,7.895.107.068.217.132.328.192l-6.188,1.768c-.315.09-.538.371-.553.698-.121,2.684,1.642,5.091,4.237,5.786.486.13.987.197,1.49.197,3.165-.008,5.723-2.581,5.715-5.745,0-.056-.001-.113-.003-.169l4.625,4.476c.236.228.591.28.882.129,2.384-1.237,3.587-3.965,2.893-6.559Zm-11.542-.668c0-.843.683-1.526,1.526-1.526s1.526.683,1.526,1.526-.683,1.526-1.526,1.526-1.526-.683-1.526-1.526Zm-3.053-4.96c0-2.318,1.878-4.198,4.196-4.199.619,0,1.23.136,1.79.4l-1.429,5.706c-1.114.008-2.134.623-2.663,1.603-1.184-.775-1.897-2.095-1.894-3.51Zm2.576,11.406c-2.007,1.16-4.574.473-5.734-1.534-.31-.536-.497-1.133-.548-1.75l5.658-1.616c.547.932,1.547,1.506,2.628,1.507h.087c-.078,1.412-.864,2.688-2.09,3.393Zm10.128-2.194c-.309.536-.732.996-1.24,1.349l-4.228-4.091c.551-.968.529-2.16-.056-3.107,2.069-1.045,4.594-.214,5.638,1.855.639,1.265.596,2.767-.114,3.994Z"/>
</svg>