<?xml version="1.0" encoding="UTF-8"?>
<svg id="uuid-c40e060b-9890-4b19-bb6b-b9d54991d83f" data-name="레이어 1" xmlns="http://www.w3.org/2000/svg" viewBox="0 0 24 24">
  <defs>
    <style>
      .uuid-f73c2a34-9bd0-49d7-bbde-178c0fdc31da {
        fill: none;
        stroke: #e2e2e2;
        stroke-linecap: round;
        stroke-linejoin: round;
        stroke-width: 2px;
      }
    </style>
  </defs>
  <path class="uuid-f73c2a34-9bd0-49d7-bbde-178c0fdc31da" d="m9,6h.337c.245,0,.367,0,.482.028.102.024.2.065.289.119.101.062.188.149.36.322l3.063,3.062c.173.173.259.259.321.36.055.09.096.188.12.29.027.114.027.235.027.474v7.345m-5-12h-4.4c-.56,0-.84,0-1.054.109-.188.096-.341.249-.437.437-.109.214-.109.494-.109,1.054v11.8c0,.56,0,.84.109,1.054.096.188.249.341.437.437.214.109.493.109,1.052.109h7.803c.559,0,.839,0,1.053-.109.188-.096.341-.249.436-.437.109-.214.109-.494.109-1.054v-1.4m-5-12v3.4c0,.56,0,.84.109,1.054.096.188.249.341.437.437.214.109.493.109,1.052.109h3.402m-4-5v-1.4c0-.56,0-.84.109-1.054.096-.188.249-.341.437-.437.214-.109.494-.109,1.054-.109h4.4m0,0h.337c.245,0,.367,0,.482.028.102.024.2.065.29.119.101.062.188.149.36.322l3.063,3.062c.173.173.259.259.321.36.055.09.096.188.12.29.027.114.027.235.027.474v8.745c0,.56,0,.84-.109,1.054-.096.188-.248.341-.436.437-.214.109-.494.109-1.053.109h-5.402m2-15v3.4c0,.56,0,.84.109,1.054.096.188.249.341.437.437.214.109.493.109,1.052.109h3.402"/>
</svg>