<?xml version="1.0" encoding="UTF-8"?>
<svg id="uuid-ed383312-029a-4fa8-95da-6ad420e7e9ec" data-name="레이어 1" xmlns="http://www.w3.org/2000/svg" viewBox="0 0 24 24">
  <defs>
    <style>
      .uuid-66a7865c-8362-427c-aa79-35519d8725c9 {
        fill: none;
        stroke: #e2e2e2;
        stroke-linecap: round;
        stroke-linejoin: round;
        stroke-width: 2px;
      }
    </style>
  </defs>
  <path class="uuid-66a7865c-8362-427c-aa79-35519d8725c9" d="m13,3.001c-.095,0-.203,0-.325,0h-4.475c-1.12,0-1.68,0-2.108.218-.377.192-.682.497-.874.874-.218.428-.218.988-.218,2.108v11.6c0,1.12,0,1.68.218,2.108.192.376.497.683.874.874.427.218.987.218,2.105.218h7.606c1.118,0,1.677,0,2.104-.218.377-.192.683-.498.875-.874.218-.427.218-.986.218-2.104v-8.478c0-.123,0-.23-.001-.326m-5.999-5.999c.286.003.466.013.639.054.204.049.399.13.578.24.202.124.375.297.721.643l3.125,3.125c.346.346.518.518.642.72.109.179.19.374.239.578.042.172.052.353.055.639m-5.999-5.999v2.799c0,1.12,0,1.68.218,2.108.192.376.497.683.874.875.427.218.987.218,2.105.218h2.802m0,0h.001"/>
</svg>