<?xml version="1.0" encoding="UTF-8"?>
<svg id="uuid-7e9fa813-22b4-4ad0-adb4-f7958f508a58" data-name="레이어 1" xmlns="http://www.w3.org/2000/svg" viewBox="0 0 24 24">
  <defs>
    <style>
      .uuid-946a0920-e7d8-4e03-beb8-dd028f6fe3f4, .uuid-3f34df73-67f1-4cc9-aa58-d9056d67d849 {
        stroke-linecap: round;
      }

      .uuid-946a0920-e7d8-4e03-beb8-dd028f6fe3f4, .uuid-3f34df73-67f1-4cc9-aa58-d9056d67d849, .uuid-5f4bf7c3-cb89-4ed8-b51a-d37106d48de5 {
        fill: none;
        stroke: #e2e2e2;
        stroke-linejoin: round;
      }

      .uuid-946a0920-e7d8-4e03-beb8-dd028f6fe3f4, .uuid-5f4bf7c3-cb89-4ed8-b51a-d37106d48de5 {
        stroke-width: 1.867px;
      }

      .uuid-3f34df73-67f1-4cc9-aa58-d9056d67d849 {
        stroke-width: 2px;
      }
    </style>
  </defs>
  <path class="uuid-5f4bf7c3-cb89-4ed8-b51a-d37106d48de5" d="m16.59,2.374v4.852c0,.207.167.374.374.374h1.119c.207,0,.374.167.374.374v3.919c0,.207-.167.374-.374.374h-1.79c-.108,0-.21.047-.281.128l-3.043,3.478c-.071.081-.174.128-.281.128h-1.527c-.108,0-.21-.047-.281-.128l-3.043-3.478c-.071-.081-.174-.128-.281-.128h-1.79c-.207,0-.374-.167-.374-.374v-3.919c0-.207.167-.374.374-.374h1.119c.207,0,.374-.167.374-.374V2.374c0-.207.167-.374.374-.374h8.585c.207,0,.374.167.374.374Z"/>
  <line class="uuid-946a0920-e7d8-4e03-beb8-dd028f6fe3f4" x1="16.459" y1="17" x2="20.193" y2="17"/>
  <line class="uuid-946a0920-e7d8-4e03-beb8-dd028f6fe3f4" x1="18.326" y1="15.133" x2="18.326" y2="18.867"/>
  <path class="uuid-3f34df73-67f1-4cc9-aa58-d9056d67d849" d="m11.825,19s-.463,3,3.674,3h5.111"/>
</svg>