<?xml version="1.0" encoding="UTF-8"?>
<svg id="uuid-772f7ede-087d-44b4-b72e-f4167f741856" data-name="레이어 1" xmlns="http://www.w3.org/2000/svg" viewBox="0 0 24 24">
  <defs>
    <style>
      .uuid-46f3cbb0-d2ff-4b87-be7d-d7167d275934 {
        fill: #e2e2e2;
        stroke: #e2e2e2;
        stroke-miterlimit: 10;
        stroke-width: .5px;
      }
    </style>
  </defs>
  <path class="uuid-46f3cbb0-d2ff-4b87-be7d-d7167d275934" d="m12.68,14.126v-5.522c0-.375-.304-.68-.68-.68s-.68.304-.68.68v5.522c-1.454.375-2.328,1.858-1.953,3.312.375,1.454,1.858,2.328,3.312,1.953,1.454-.375,2.328-1.858,1.953-3.312-.247-.958-.995-1.705-1.953-1.953Zm-.68,3.993c-.751,0-1.359-.609-1.359-1.359s.609-1.359,1.359-1.359,1.359.609,1.359,1.359-.609,1.359-1.359,1.359Zm3.398-5.607v-7.306c0-1.877-1.521-3.398-3.398-3.398s-3.398,1.521-3.398,3.398v7.306c-2.344,1.877-2.723,5.299-.846,7.643,1.877,2.344,5.299,2.723,7.643.846s2.723-5.299.846-7.643c-.25-.312-.534-.596-.846-.846Zm-3.398,8.326c-2.252,0-4.078-1.825-4.078-4.078,0-1.335.653-2.585,1.749-3.348.183-.128.292-.337.291-.561v-7.646c0-1.126.913-2.039,2.039-2.039s2.039.913,2.039,2.039v7.646c0,.222.108.43.291.557,1.851,1.284,2.31,3.824,1.026,5.675-.763,1.1-2.017,1.755-3.356,1.754Z"/>
</svg>