<?xml version="1.0" encoding="utf-8"?>
<!-- Generator: Adobe Illustrator 27.8.1, SVG Export Plug-In . SVG Version: 6.00 Build 0)  -->
<svg version="1.1" id="uuid-1dd6cf84-ee06-4852-8270-874b2392eebd"
	 xmlns="http://www.w3.org/2000/svg" xmlns:xlink="http://www.w3.org/1999/xlink" x="0px" y="0px" width="24px" height="24px"
	 viewBox="0 0 24 24" style="enable-background:new 0 0 24 24;" xml:space="preserve">
<style type="text/css">
	.st0{fill:none;stroke:#E2E2E2;stroke-width:2;stroke-linecap:round;stroke-linejoin:round;}
</style>
<g>
	<g>
		<line class="st0" x1="10" y1="13.6" x2="12" y2="15.6"/>
		<line class="st0" x1="12" y1="15.6" x2="14" y2="17.6"/>
		<line class="st0" x1="12" y1="15.6" x2="10" y2="17.6"/>
		<line class="st0" x1="12" y1="15.6" x2="14" y2="13.6"/>
	</g>
	<path class="st0" d="M19,12.4c0-0.8,0-1.3-0.2-1.6c-0.2-0.3-0.5-0.6-0.9-0.8c-0.4-0.2-1-0.2-2.1-0.2H8.2c-1.1,0-1.7,0-2.1,0.2
		c-0.4,0.2-0.7,0.4-0.9,0.8C5,11.1,5,11.5,5,12.4c0,0.1,0,0.1,0,0.2v6c0,0.1,0,0.1,0,0.2c0,0.8,0,1.3,0.2,1.6
		c0.2,0.3,0.5,0.6,0.9,0.8c0.4,0.2,1,0.2,2.1,0.2h7.6c1.1,0,1.7,0,2.1-0.2c0.4-0.2,0.7-0.4,0.9-0.8C19,20,19,19.6,19,18.7
		c0-0.1,0-0.1,0-0.2v-6C19,12.5,19,12.4,19,12.4z"/>
	<line class="st0" x1="12" y1="9.7" x2="12" y2="3.9"/>
</g>
<line class="st0" x1="7.4" y1="8.4" x2="16.6" y2="8.4"/>
</svg>
