<?xml version="1.0" encoding="UTF-8"?>
<svg id="uuid-8091c5c3-37a8-438e-94b0-a0b6d411bd0a" data-name="레이어 1" xmlns="http://www.w3.org/2000/svg" viewBox="0 0 24 24">
  <defs>
    <style>
      .uuid-b7318d14-7001-4d3c-b0aa-2a1e8b464d6a {
        fill: none;
        stroke: #e2e2e2;
        stroke-linecap: round;
        stroke-linejoin: round;
        stroke-width: 2px;
      }
    </style>
  </defs>
  <path class="uuid-b7318d14-7001-4d3c-b0aa-2a1e8b464d6a" d="m8.372,14.59c.466-.5,1.029-.898,1.655-1.172.626-.273,1.302-.416,1.985-.418.683-.002,1.359.135,1.987.404.627.269,1.194.664,1.663,1.16m-9.484-3.021c.746-.799,1.647-1.437,2.648-1.875,1.002-.438,2.082-.665,3.175-.669,1.093-.004,2.175.216,3.179.647,1.005.431,1.911,1.062,2.662,1.856m-14.589-2.687c1.118-1.199,2.469-2.156,3.972-2.812,1.502-.656,3.122-.998,4.761-1.004,1.64-.006,3.264.325,4.771.97,1.506.646,2.865,1.594,3.991,2.785m-8.719,10.244c-.552,0-1-.448-1-1s.448-1,1-1,1,.448,1,1-.448,1-1,1Z"/>
</svg>