<?xml version="1.0" encoding="UTF-8"?>
<svg id="uuid-35db50c0-717c-42ef-8556-5afd1258f605" data-name="레이어 1" xmlns="http://www.w3.org/2000/svg" viewBox="0 0 24 24">
  <defs>
    <style>
      .uuid-a2ab18fe-5ae1-4033-b1d8-3a210fcb2af4 {
        fill: none;
        stroke: #e2e2e2;
        stroke-linecap: round;
        stroke-linejoin: round;
        stroke-width: 2px;
      }

      .uuid-63d779fa-7de3-4394-a138-0ce9de951f84 {
        fill: #e2e2e2;
        stroke-width: 0px;
      }
    </style>
  </defs>
  <path class="uuid-a2ab18fe-5ae1-4033-b1d8-3a210fcb2af4" d="m19.111,17.79l-7.111,4.074-7.111-4.074m14.223-3.716l-7.111,4.074-7.111-4.074,7.111-4.074,7.111,4.074Z"/>
  <path class="uuid-63d779fa-7de3-4394-a138-0ce9de951f84" d="m19,0v2.595c0,.223-.181.405-.405.405h-1.912c-.117,0-.228.05-.304.138l-3.258,3.724c-.077.088-.188.138-.304.138h-1.633c-.117,0-.228-.05-.304-.138l-3.258-3.724c-.077-.088-.188-.138-.304-.138h-1.912c-.223,0-.405-.181-.405-.405V0"/>
</svg>