<?xml version="1.0" encoding="UTF-8"?>
<svg id="uuid-27374909-7053-4554-b7c4-2f6bd502e108" data-name="레이어 1" xmlns="http://www.w3.org/2000/svg" viewBox="0 0 24 24">
  <defs>
    <style>
      .uuid-683e20ce-a87d-4a5f-9c43-4e11345746b4 {
        fill: none;
        stroke: #e2e2e2;
        stroke-linecap: round;
        stroke-linejoin: round;
        stroke-width: 2px;
      }
    </style>
  </defs>
  <path class="uuid-683e20ce-a87d-4a5f-9c43-4e11345746b4" d="m8.259,2c-.496,0-.972.211-1.323.586-.351.375-.548.884-.548,1.414v6.4c0,.384-.143.753-.397,1.024l-1.077,1.152c-.254.272-.397.64-.397,1.024v6.4c0,.53.197,1.039.548,1.414.351.375.827.586,1.323.586h11.222c.496,0,.972-.211,1.323-.586.351-.375.548-.884.548-1.414V4c0-.53-.197-1.039-.548-1.414-.351-.375-.827-.586-1.323-.586h-9.352Z"/>
  <g>
    <line class="uuid-683e20ce-a87d-4a5f-9c43-4e11345746b4" x1="10.037" y1="6" x2="10.037" y2="8"/>
    <line class="uuid-683e20ce-a87d-4a5f-9c43-4e11345746b4" x1="13.037" y1="6" x2="13.037" y2="8"/>
    <line class="uuid-683e20ce-a87d-4a5f-9c43-4e11345746b4" x1="16.037" y1="6" x2="16.037" y2="8"/>
  </g>
</svg>