<?xml version="1.0" encoding="UTF-8"?>
<svg id="uuid-851ece70-615b-4ac4-a5c5-3e7e95b41679" data-name="레이어 1" xmlns="http://www.w3.org/2000/svg" viewBox="0 0 24 24">
  <defs>
    <style>
      .uuid-6a83022e-5475-48b0-b852-07f79c2e69a4 {
        fill: #e2e2e2;
        stroke: #e2e2e2;
        stroke-miterlimit: 10;
        stroke-width: .476px;
      }
    </style>
  </defs>
  <path class="uuid-6a83022e-5475-48b0-b852-07f79c2e69a4" d="m11.198,11.599V3.58c0-.443.359-.802.802-.802s.802.359.802.802v8.019c0,.443-.359.802-.802.802s-.802-.359-.802-.802Zm6.052-7.889c-.374-.237-.87-.125-1.106.249-.232.367-.13.852.23,1.094,2.317,1.511,3.646,3.896,3.646,6.546,0,4.429-3.59,8.019-8.019,8.019S3.981,16.028,3.981,11.599c0-2.649,1.329-5.035,3.646-6.546.367-.247.465-.746.218-1.113-.242-.36-.727-.462-1.094-.23-2.78,1.812-4.374,4.687-4.374,7.889,0,5.315,4.308,9.623,9.623,9.623s9.623-4.308,9.623-9.623c0-3.202-1.594-6.077-4.374-7.889Z"/>
</svg>