<?xml version="1.0" encoding="UTF-8"?>
<svg id="uuid-c556a450-0171-4491-a86e-54c404d49343" data-name="레이어 1" xmlns="http://www.w3.org/2000/svg" viewBox="0 0 24 24">
  <defs>
    <style>
      .uuid-5351775a-8ccb-49be-8caf-48cbeef2a0b6 {
        fill: #e2e2e2;
        stroke: #e2e2e2;
        stroke-miterlimit: 10;
        stroke-width: .362px;
      }
    </style>
  </defs>
  <path class="uuid-5351775a-8ccb-49be-8caf-48cbeef2a0b6" d="m1.474,15.383v2.256c0,.831.673,1.504,1.504,1.504h18.045c.831,0,1.504-.673,1.504-1.504v-2.149c0-5.839-4.706-10.613-10.489-10.632h-.038c-2.787-.008-5.462,1.097-7.43,3.07-1.988,1.971-3.104,4.656-3.096,7.456Zm1.504,0c0-.253.011-.503.031-.752h2.225c.415,0,.752-.337.752-.752s-.337-.752-.752-.752h-1.974c.963-3.714,4.166-6.414,7.989-6.736v2.225c0,.415.337.752.752.752s.752-.337.752-.752v-2.224c3.828.321,6.993,3.083,7.963,6.735h-1.948c-.415,0-.752.337-.752.752s.337.752.752.752h2.215c.026.283.04.569.04.858v2.149h-6.383s-5.79-7.962-5.79-7.962c-.244-.336-.715-.41-1.051-.165-.336.244-.41.715-.165,1.051l5.147,7.077H2.977v-2.256Z"/>
</svg>