<?xml version="1.0" encoding="UTF-8"?>
<svg id="uuid-009cfe62-c2c9-42b9-b707-c0efab5a351e" data-name="레이어 1" xmlns="http://www.w3.org/2000/svg" viewBox="0 0 24 24">
  <defs>
    <style>
      .uuid-1aee4cbd-2614-426f-85f6-71f806ca1528 {
        fill: none;
        stroke: #e2e2e2;
        stroke-linecap: round;
        stroke-linejoin: round;
        stroke-width: 2px;
      }
    </style>
  </defs>
  <g id="uuid-9cd74acf-99b7-40f0-91d5-87895843b5c6" data-name="Media / Stop">
    <path id="uuid-3a47918d-738f-4b19-bf71-20e527e73a59" data-name="Vector" class="uuid-1aee4cbd-2614-426f-85f6-71f806ca1528" d="m5,8.2v7.6c0,1.12,0,1.679.218,2.107.192.376.497.683.874.875.427.218.987.218,2.105.218h7.607c1.118,0,1.677,0,2.104-.218.376-.192.683-.498.874-.875.218-.427.218-.986.218-2.104v-7.606c0-1.118,0-1.678-.218-2.105-.192-.376-.498-.682-.874-.874-.428-.218-.988-.218-2.108-.218h-7.6c-1.12,0-1.681,0-2.108.218-.376.192-.682.497-.874.874-.218.428-.218.988-.218,2.108Z"/>
  </g>
</svg>