<?xml version="1.0" encoding="UTF-8"?>
<svg id="uuid-51161df2-eb63-4dd4-ba64-5922ca1d20d5" data-name="레이어 1" xmlns="http://www.w3.org/2000/svg" viewBox="0 0 24 24">
  <defs>
    <style>
      .uuid-a9fdcd00-6b13-41c9-b843-a10ad131c135 {
        fill: none;
        stroke: #e2e2e2;
        stroke-linecap: round;
        stroke-linejoin: round;
        stroke-width: 2px;
      }
    </style>
  </defs>
  <g id="uuid-754595e3-82ce-4cd3-9046-f8bc4f8fa203" data-name="Warning / Triangle_Warning">
    <path id="uuid-10470f70-db9c-4fd2-96be-ece69e6db0b3" data-name="Vector" class="uuid-a9fdcd00-6b13-41c9-b843-a10ad131c135" d="m12,9v4m-7.621,2.2c-.909,1.575-1.364,2.363-1.296,3.009.059.564.355,1.076.814,1.409.526.382,1.434.382,3.252.382h9.703c1.818,0,2.726,0,3.252-.382.458-.333.755-.845.814-1.409.068-.646-.386-1.434-1.296-3.009l-4.85-8.4c-.909-1.575-1.364-2.363-1.958-2.627-.518-.231-1.109-.231-1.627,0-.593.264-1.048,1.052-1.957,2.626l-4.851,8.401Zm7.672.8v.1h-.101s0-.1,0-.1h.101Z"/>
  </g>
</svg>